<svg xmlns="http://www.w3.org/2000/svg" xmlns:xlink="http://www.w3.org/1999/xlink" xmlns:lucid="lucid" width="1760" height="1360"><g transform="translate(0 0)" lucid:page-tab-id="0_0"><path d="M928 76.85c17.67 0 32 22.38 32 50 0 27.6-14.33 50-32 50h-96c-17.67 0-32-22.4-32-50 0-27.62 14.33-50 32-50z" stroke="#000" stroke-opacity="0"/><use xlink:href="#a" transform="matrix(1,0,0,1,805.0000000000002,81.8477599500381) translate(56.525 48.6)"/><path d="M873.47 432.28a11.3 11.3 0 0 1 13.06 0l106.94 75.8a5.67 5.67 0 0 1 0 9.25l-106.94 75.8a11.3 11.3 0 0 1-13.06 0l-106.94-75.8a5.67 5.67 0 0 1 0-9.26z" stroke="#000" stroke-opacity="0"/><use xlink:href="#b" transform="matrix(1,0,0,1,765,432.65224004988846) translate(33.150000000000006 84.10000000000001)"/><path d="M800 250.25a8 8 0 0 1 8-8h144a8 8 0 0 1 8 8v104a8 8 0 0 1-8 8H808a8 8 0 0 1-8-8z" stroke="#000" stroke-opacity="0"/><use xlink:href="#c" transform="matrix(1,0,0,1,805.0000000000002,247.24999999996328) translate(47.05 58.6)"/><path d="M880 177.35V225.87" stroke="#333" fill="none"/><path d="M880.5 177.36h-1v-.5h1z" stroke="#333" stroke-width=".05" fill="#333"/><path d="M880 240.63l-4.63-14.26h9.26z" stroke="#333" fill="#333"/><path d="M880 362.75V413.8" stroke="#333" fill="none"/><path d="M880.5 362.76h-1v-.5h1z" stroke="#333" stroke-width=".05" fill="#333"/><path d="M880 428.58l-4.63-14.26h9.26z" stroke="#333" fill="#333"/><path d="M881 647.2h-2v-5.95h2zm0-27.55h-2V596.2h2z" stroke="#008a0e" stroke-width=".05" fill="#008a0e"/><path d="M880 595.2l1-.06v1.1h-2v-1.1z" fill="#008a0e"/><path d="M880 595.18l1.02-.07v1.15H879v-1.14zm-.98 1.02H881v-1.03l-.98.06-.98-.06z" stroke="#008a0e" stroke-width=".05" fill="#008a0e"/><path d="M880 662.46l-4.63-14.26h9.26z" fill="#008a0e"/><path d="M880 665.7l-6-18.5h12zm-3.26-16.5l3.26 10.03 3.26-10.03z" stroke="#008a0e" stroke-width=".05" fill="#008a0e"/><use xlink:href="#d" transform="matrix(1,0,0,1,865.325,619.6511200498987) translate(0.005000000000000782 14.4)"/><path d="M1024.4 513.66l-.5.04h-27.04v-2h26.97l.56-.04zm1.5-124.3l1.98.47 1.9.78 1.73 1.08 1.56 1.32 1.32 1.56 1.07 1.74.78 1.88.48 2 .16 1.98v98.58l-.05.64h-2l.06-.72v-98.42l-.13-1.76-.4-1.68-.67-1.6-.9-1.46-1.12-1.32-1.3-1.12-1.48-.9-1.6-.66-1.67-.4-1.77-.14h-131.8l-1.75.14-1.68.4-1.6.66-1.46.9-1.32 1.12-1.12 1.32-.9 1.47-.66 1.6-.4 1.68-.14 1.76v9.46h-2v-9.54l.16-2 .47-1.98.78-1.88 1.08-1.74 1.32-1.56 1.56-1.32 1.74-1.07 1.88-.77 2-.47 1.98-.16h131.94z" stroke="#e81313" stroke-width=".05" fill="#e81313"/><path d="M996.9 513.7h-1.13l.1-1-.1-1h1.12z" fill="#e81313"/><path d="M996.9 513.73h-1.16l.1-1.03-.1-1.02h1.17zm-1.1-2l.1.97-.1.98h1.07v-1.95z" stroke="#e81313" stroke-width=".05" fill="#e81313"/><path d="M880 426.96l-4.63-14.26h9.26z" fill="#e81313"/><path d="M880 430.2l-6-18.5h12zm-3.26-16.5l3.26 10.03 3.26-10.03z" stroke="#e81313" stroke-width=".05" fill="#e81313"/><use xlink:href="#e" transform="matrix(1,0,0,1,1024.3893687468885,501.3853957846706) translate(0.005000000000000782 14.4)"/><path d="M1028.97 748.7h-32.6v-1h32.6zm54.15 0h-32.45v-1h32.45z" stroke="#3a414a" stroke-width=".05" fill="#3a414a"/><path d="M996.38 748.7h-.56l.04-.5-.04-.5h.56z" fill="#3a414a"/><path d="M996.4 748.73h-.6l.04-.53-.05-.52h.6zm-.56-1l.05.47-.06.48h.5v-.95z" stroke="#3a414a" stroke-width=".05" fill="#3a414a"/><path d="M1097.88 748.2l-14.26 4.64v-9.27z" fill="#3a414a"/><path d="M1099.5 748.2l-16.38 5.32V742.9zm-15.38 3.95l12.14-3.95-12.14-3.95z" stroke="#3a414a" stroke-width=".05" fill="#3a414a"/><use xlink:href="#f" transform="matrix(1,0,0,1,1028.9662213772663,737.4011200249565) translate(0.005000000000000782 14.4)"/><path d="M880.5 884.82h-1v-15.16h1zm0-36.76h-1V831.2h1z" stroke="#3a414a" stroke-width=".05" fill="#3a414a"/><path d="M880 830.7l.5-.03v.55h-1v-.55z" fill="#3a414a"/><path d="M880 830.68l.52-.03v.6h-1.04v-.6zm-.48.5h.96v-.48l-.48.03-.48-.03z" stroke="#3a414a" stroke-width=".05" fill="#3a414a"/><path d="M880 899.58l-4.63-14.26h9.26z" fill="#3a414a"/><path d="M880 901.2l-5.32-16.38h10.64zm-3.95-15.38l3.95 12.14 3.95-12.14z" stroke="#3a414a" stroke-width=".05" fill="#3a414a"/><use xlink:href="#g" transform="matrix(1,0,0,1,869.1500000000002,848.0598753310649) translate(0.005000000000000782 14.4)"/><path d="M873.47 667.78a11.3 11.3 0 0 1 13.06 0l106.94 75.8a5.67 5.67 0 0 1 0 9.25l-106.94 75.8a11.3 11.3 0 0 1-13.06 0l-106.94-75.8a5.67 5.67 0 0 1 0-9.25z" stroke="#000" stroke-opacity="0"/><use xlink:href="#h" transform="matrix(1,0,0,1,765.0000000000002,668.1522400499089) translate(27.15000000000002 84.10000000000001)"/><path d="M1100 696.2a8 8 0 0 1 8-8h144a8 8 0 0 1 8 8v104a8 8 0 0 1-8 8h-144a8 8 0 0 1-8-8z" stroke="#fff"/><path d="M1116 688.2v120m128-120v120" stroke="#fff" fill="none"/><use xlink:href="#i" transform="matrix(1,0,0,1,1125,693.2011200249565) translate(3.5999999999999943 58.6)"/><path d="M873.47 903.28a11.3 11.3 0 0 1 13.06 0l106.94 75.8a5.67 5.67 0 0 1 0 9.25l-106.94 75.8a11.3 11.3 0 0 1-13.06 0l-106.94-75.8a5.67 5.67 0 0 1 0-9.25z" stroke="#000" stroke-opacity="0"/><use xlink:href="#j" transform="matrix(1,0,0,1,765.0000000000002,903.6522400499293) translate(43.099999999999994 84.10000000000001)"/><use xlink:href="#k" transform="matrix(1,0,0,1,765.0000000000002,903.6522400499293) translate(98 84.10000000000001)"/><path d="M1100 931.7a8 8 0 0 1 8-8h144a8 8 0 0 1 8 8v104a8 8 0 0 1-8 8h-144a8 8 0 0 1-8-8z" stroke="#fff"/><path d="M1116 923.7v120m128-120v120" stroke="#fff" fill="none"/><use xlink:href="#l" transform="matrix(1,0,0,1,1125.0000000000005,928.701120024977) translate(31.525 58.6)"/><path d="M500 931.7a8 8 0 0 1 8-8h144a8 8 0 0 1 8 8v104a8 8 0 0 1-8 8H508a8 8 0 0 1-8-8z" stroke="#fff"/><path d="M516 923.7v120m128-120v120" stroke="#fff" fill="none"/><use xlink:href="#m" transform="matrix(1,0,0,1,525,928.701120024977) translate(34.5 58.6)"/><path d="M800 1142.15a8 8 0 0 1 8-8h144a8 8 0 0 1 8 8v104a8 8 0 0 1-8 8H808a8 8 0 0 1-8-8z" stroke="#fff"/><path d="M816 1134.15v120m128-120v120" stroke="#fff" fill="none"/><use xlink:href="#n" transform="matrix(1,0,0,1,825.0000000000002,1139.1522400499498) translate(37.525 58.6)"/><path d="M707.32 984.2h-30.44v-1h30.44zm56.32 0h-46.32v-1h46.32z" stroke="#3a414a" stroke-width=".05" fill="#3a414a"/><path d="M764.14 983.7l.04.5h-.56v-1h.56z" fill="#3a414a"/><path d="M764.16 983.7l.05.53h-.6v-1.05h.6zm-.5-.47v.95h.5l-.05-.48.06-.47z" stroke="#3a414a" stroke-width=".05" fill="#3a414a"/><path d="M676.38 988.34l-14.26-4.64 14.26-4.63z" fill="#3a414a"/><path d="M676.88 989.02l-16.38-5.32 16.38-5.32zm-13.14-5.32l12.14 3.95v-7.9z" stroke="#3a414a" stroke-width=".05" fill="#3a414a"/><use xlink:href="#o" transform="matrix(1,0,0,1,707.3177906284802,972.901120024977) translate(0.004999999999999893 14.4)"/><path d="M1042.68 984.2h-46.32v-1h46.32zm40.44 0h-30.44v-1h30.44z" stroke="#3a414a" stroke-width=".05" fill="#3a414a"/><path d="M996.38 984.2h-.56l.04-.5-.04-.5h.56z" fill="#3a414a"/><path d="M996.4 984.23h-.6l.04-.53-.05-.52h.6zm-.56-1l.05.47-.06.48h.5v-.95z" stroke="#3a414a" stroke-width=".05" fill="#3a414a"/><path d="M1097.88 983.7l-14.26 4.64v-9.27z" fill="#3a414a"/><path d="M1099.5 983.7l-16.38 5.32V978.4zm-15.38 3.95l12.14-3.95-12.14-3.95z" stroke="#3a414a" stroke-width=".05" fill="#3a414a"/><use xlink:href="#p" transform="matrix(1,0,0,1,1042.6822093739088,972.901120024977) translate(0.004999999999999893 14.4)"/><path d="M880.5 1117.27h-1v-22.1h1zm0-43.7h-1v-6.87h1z" stroke="#3a414a" stroke-width=".05" fill="#3a414a"/><path d="M880 1066.2l.5-.03v.54h-1v-.53z" fill="#3a414a"/><path d="M880 1066.18l.52-.04v.6h-1.04v-.6zm-.48.5h.96v-.48l-.48.03-.48-.03z" stroke="#3a414a" stroke-width=".05" fill="#3a414a"/><path d="M880 1132.03l-4.63-14.26h9.26z" fill="#3a414a"/><path d="M880 1133.65l-5.32-16.38h10.64zm-3.95-15.38l3.95 12.15 3.95-12.15z" stroke="#3a414a" stroke-width=".05" fill="#3a414a"/><use xlink:href="#q" transform="matrix(1,0,0,1,875.0000000000002,1073.5788615884255) translate(0.004999999999999893 14.4)"/><path d="M869.96 389.85l1.9.46 1.82.76 1.67 1.03 1.5 1.26 1.26 1.5 1.04 1.66.75 1.82.45 1.9.15 1.94v11.64h-1v-11.6l-.14-1.82-.42-1.75-.7-1.67-.94-1.54-1.17-1.37-1.37-1.17-1.54-.94-1.67-.7-1.75-.42-1.82-.14H471.52l-1.82.14-1.75.42-1.67.7-1.54.94-1.37 1.17-1.17 1.37-.94 1.54-.7 1.67-.42 1.75-.14 1.82v569.46l.14 1.82.42 1.75.7 1.67.94 1.54 1.17 1.37 1.37 1.17 1.54.95 1.67.7 1.75.4 1.82.15H499v1h-27.52l-1.94-.15-1.9-.46-1.82-.76-1.67-1.02-1.5-1.28-1.26-1.5-1.04-1.66-.75-1.82-.45-1.9-.15-1.94V402.18l.15-1.94.46-1.9.76-1.82 1.03-1.67 1.26-1.5 1.5-1.26 1.66-1.04 1.82-.75 1.9-.45 1.94-.15h396.54z" stroke="#3a414a" stroke-width=".05" fill="#3a414a"/><path d="M499.5 984.2h-.5v-1h.5z" fill="#3a414a"/><path d="M499.52 984.23h-.56v-1.05h.56zm-.5-1v.95h.46v-.95z" stroke="#3a414a" stroke-width=".05" fill="#3a414a"/><path d="M880 428.58l-4.63-14.26h9.26z" fill="#3a414a"/><path d="M880 430.2l-5.32-16.38h10.64zm-3.95-15.38l3.95 12.14 3.95-12.14z" stroke="#3a414a" stroke-width=".05" fill="#3a414a"/><path d="M869.96 389.85l1.9.46 1.82.76 1.67 1.03 1.5 1.26 1.26 1.5 1.04 1.66.75 1.82.45 1.9.15 1.94v11.64h-1v-11.6l-.14-1.82-.42-1.75-.7-1.67-.94-1.54-1.17-1.37-1.37-1.17-1.54-.94-1.67-.7-1.75-.42-1.82-.14H472.02l-1.82.14-1.75.42-1.67.7-1.54.94-1.37 1.17-1.17 1.37-.94 1.54-.7 1.67-.42 1.75-.14 1.82v885.76l.14 1.82.42 1.75.7 1.67.94 1.54 1.17 1.37 1.37 1.17 1.54.94 1.67.7 1.75.42 1.82.14h395.96l1.82-.14 1.75-.42 1.67-.7 1.54-.94 1.37-1.17 1.17-1.37.95-1.54.7-1.67.4-1.75.15-1.82v-32.83h1v32.87l-.15 1.94-.46 1.9-.76 1.82-1.03 1.67-1.26 1.5-1.5 1.26-1.66 1.04-1.82.75-1.9.45-1.94.15H471.98l-1.94-.15-1.9-.46-1.82-.76-1.67-1.03-1.5-1.26-1.26-1.5-1.04-1.66-.75-1.82-.45-1.9-.15-1.94V402.18l.15-1.94.46-1.9.76-1.82 1.03-1.67 1.26-1.5 1.5-1.26 1.66-1.04 1.82-.75 1.9-.45 1.94-.15h396.04z" stroke="#3a414a" stroke-width=".05" fill="#3a414a"/><path d="M880.5 1255.16h-1v-.5h1z" fill="#3a414a"/><path d="M880.52 1255.2h-1.04v-.57h1.04zm-1-.52v.46h.96v-.46z" stroke="#3a414a" stroke-width=".05" fill="#3a414a"/><path d="M880 428.58l-4.63-14.26h9.26z" fill="#3a414a"/><path d="M880 430.2l-5.32-16.38h10.64zm-3.95-15.38l3.95 12.14 3.95-12.14z" stroke="#3a414a" stroke-width=".05" fill="#3a414a"/><path d="M869.96 389.85l1.9.46 1.82.76 1.67 1.03 1.5 1.26 1.26 1.5 1.04 1.66.75 1.82.45 1.9.15 1.94v11.64h-1v-11.6l-.14-1.82-.42-1.75-.7-1.67-.94-1.54-1.17-1.37-1.37-1.17-1.54-.94-1.67-.7-1.75-.42-1.82-.14H472.02l-1.82.14-1.75.42-1.67.7-1.54.94-1.37 1.17-1.17 1.37-.94 1.54-.7 1.67-.42 1.75-.14 1.82v885.76l.14 1.82.42 1.75.7 1.67.94 1.54 1.17 1.37 1.37 1.17 1.54.94 1.67.7 1.75.42 1.82.14h695.96l1.82-.14 1.75-.42 1.67-.7 1.54-.94 1.37-1.17 1.17-1.37.94-1.54.7-1.67.42-1.75.14-1.82V1044.7h1v243.32l-.15 1.94-.46 1.9-.76 1.82-1.03 1.67-1.26 1.5-1.5 1.26-1.66 1.04-1.82.75-1.9.45-1.94.15H471.98l-1.94-.15-1.9-.46-1.82-.76-1.67-1.03-1.5-1.26-1.26-1.5-1.04-1.66-.75-1.82-.45-1.9-.15-1.94V402.18l.15-1.94.46-1.9.76-1.82 1.03-1.67 1.26-1.5 1.5-1.26 1.66-1.04 1.82-.75 1.9-.45 1.94-.15h396.04z" stroke="#3a414a" stroke-width=".05" fill="#3a414a"/><path d="M1180.5 1044.7h-1v-.5h1z" fill="#3a414a"/><path d="M1180.53 1044.74h-1.06v-.56h1.06zm-1-.5v.45h.94v-.47z" stroke="#3a414a" stroke-width=".05" fill="#3a414a"/><path d="M880 428.58l-4.63-14.26h9.26z" fill="#3a414a"/><path d="M880 430.2l-5.32-16.38h10.64zm-3.95-15.38l3.95 12.14 3.95-12.14z" stroke="#3a414a" stroke-width=".05" fill="#3a414a"/><path d="M869.96 389.85l1.9.46 1.82.76 1.67 1.03 1.5 1.26 1.26 1.5 1.04 1.66.75 1.82.45 1.9.15 1.94v11.64h-1v-11.6l-.14-1.82-.42-1.75-.7-1.67-.94-1.54-1.17-1.37-1.37-1.17-1.54-.94-1.67-.7-1.75-.42-1.82-.14H472.02l-1.82.14-1.75.42-1.67.7-1.54.94-1.37 1.17-1.17 1.37-.94 1.54-.7 1.67-.42 1.75-.14 1.82v885.76l.14 1.82.42 1.75.7 1.67.94 1.54 1.17 1.37 1.37 1.17 1.54.94 1.67.7 1.75.42 1.82.14h815.96l1.82-.14 1.75-.42 1.67-.7 1.54-.94 1.37-1.17 1.17-1.37.94-1.54.7-1.67.42-1.75.14-1.82V760.22l-.14-1.82-.42-1.75-.7-1.67-.94-1.54-1.17-1.37-1.37-1.17-1.54-.94-1.67-.7-1.75-.42-1.82-.14H1261v-1h27.02l1.94.15 1.9.46 1.82.76 1.67 1.03 1.5 1.26 1.26 1.5 1.04 1.67.75 1.8.45 1.9.15 1.95v527.84l-.15 1.94-.46 1.9-.76 1.82-1.03 1.67-1.26 1.5-1.5 1.26-1.66 1.04-1.82.75-1.9.45-1.94.15H471.98l-1.94-.15-1.9-.46-1.82-.76-1.67-1.03-1.5-1.26-1.26-1.5-1.04-1.66-.75-1.82-.45-1.9-.15-1.94V402.18l.15-1.94.46-1.9.76-1.82 1.03-1.67 1.26-1.5 1.5-1.26 1.66-1.04 1.82-.75 1.9-.45 1.94-.15h396.04z" stroke="#3a414a" stroke-width=".05" fill="#3a414a"/><path d="M1261 748.7h-.5v-1h.5z" fill="#3a414a"/><path d="M1261.04 748.73h-.57v-1.05h.57zm-.5-1v.95h.45v-.95z" stroke="#3a414a" stroke-width=".05" fill="#3a414a"/><path d="M880 428.58l-4.63-14.26h9.26z" fill="#3a414a"/><path d="M880 430.2l-5.32-16.38h10.64zm-3.95-15.38l3.95 12.14 3.95-12.14z" stroke="#3a414a" stroke-width=".05" fill="#3a414a"/><defs><path fill="#fff" d="M194-120c59 52 2 134-86 124-53-6-90-18-98-63l31-7c8 30 29 43 70 43 46 0 84-17 71-62-32-43-135-20-137-98-3-89 178-90 191-16l-30 9c-8-48-127-53-127 5 0 53 81 35 115 65" id="r"/><path fill="#fff" d="M51-54c-9 22 5 41 31 30L79-1C43 14 10-4 19-52l22-115H19l5-23h22l19-43h21l-9 43h35l-4 23H73" id="s"/><path fill="#fff" d="M165-48c-4 18 1 34 23 27l-3 20c-29 8-62 0-52-35h-2C116-14 99 4 63 4 30 4 8-16 8-49c0-68 71-67 138-67 10-26 0-56-31-54-26 1-42 9-47 31l-32-5c8-67 160-71 144 15-5 28-9 54-15 81zM42-50c3 52 80 24 89-6 7-12 7-24 11-38-47 1-103-4-100 44" id="t"/><path fill="#fff" d="M66-151c12-25 30-51 66-40l-6 26C45-176 58-65 38 0H6l36-190h30" id="u"/><g id="a"><use transform="matrix(0.05,0,0,0.05,0,0)" xlink:href="#r"/><use transform="matrix(0.05,0,0,0.05,12,0)" xlink:href="#s"/><use transform="matrix(0.05,0,0,0.05,17,0)" xlink:href="#t"/><use transform="matrix(0.05,0,0,0.05,27,0)" xlink:href="#u"/><use transform="matrix(0.05,0,0,0.05,32.95,0)" xlink:href="#s"/></g><path fill="#fff" d="M219-77C219 17 104-2 11 0l48-248c73 2 169-15 169 57 0 38-24 54-60 60 29 5 51 21 51 54zm-26-111c0-44-62-31-105-33l-16 79c55 0 121 9 121-46zm-7 110c-1-49-69-36-119-38L50-27c61-1 137 12 136-51" id="v"/><path fill="#fff" d="M6 0l50-261h32L37 0H6" id="w"/><path fill="#fff" d="M67 3c-93-2-31-127-26-193h32L48-50c-3 39 53 32 70 12 30-34 30-101 43-152h32L157 0h-30c1-10 6-24 4-33-14 20-29 37-64 36" id="x"/><path fill="#fff" d="M111-194c62-3 86 47 72 106H45c-7 38 6 69 45 68 27-1 43-14 53-32l24 11C152-15 129 4 87 4 38 3 12-23 12-71c0-70 32-119 99-123zm44 81c14-66-71-72-95-28-4 8-8 17-11 28h106" id="y"/><path fill="#fff" d="M30-147c31-64 166-65 159 27C183-49 158 1 86 4 9 8 1-88 30-147zM88-20c53 0 68-48 68-100 0-31-11-51-44-50-52 1-68 46-68 97 0 32 13 53 44 53" id="z"/><path fill="#fff" d="M67-158c15-20 31-36 64-36 94 0 33 127 27 194h-32l25-140c3-38-53-32-70-12C52-117 51-51 37 0H6l51-261h31" id="A"/><path fill="#fff" d="M14 0l8-38h34L48 0H14" id="B"/><path fill="#fff" d="M89 0H52L20-190h33L74-25l89-165h34" id="C"/><path fill="#fff" d="M50-231l6-30h32l-6 30H50zM6 0l37-190h31L37 0H6" id="D"/><path fill="#fff" d="M68-162c25-46 127-43 121 31C183-60 169 1 98 4 69 5 53-11 43-31L36 0H5l52-261h31zm88 36c2-27-9-43-34-43-55 0-70 51-70 103 0 29 15 45 43 46 52 0 58-58 61-106" id="E"/><path fill="#fff" d="M17-49c1-102 45-165 103-212h30C92-210 49-145 49-46 49 4 63 43 85 75H54C30 43 18 2 17-49" id="F"/><path fill="#fff" d="M98-137C97-35 54 29-4 75h-31C23 23 67-41 67-140c0-50-15-89-37-121h31c24 32 36 73 37 124" id="G"/><g id="b"><use transform="matrix(0.05,0,0,0.05,0,0)" xlink:href="#v"/><use transform="matrix(0.05,0,0,0.05,12,0)" xlink:href="#w"/><use transform="matrix(0.05,0,0,0.05,15.949999999999998,0)" xlink:href="#x"/><use transform="matrix(0.05,0,0,0.05,25.950000000000003,0)" xlink:href="#y"/><use transform="matrix(0.05,0,0,0.05,35.95,0)" xlink:href="#s"/><use transform="matrix(0.05,0,0,0.05,40.95,0)" xlink:href="#z"/><use transform="matrix(0.05,0,0,0.05,50.95,0)" xlink:href="#z"/><use transform="matrix(0.05,0,0,0.05,60.95,0)" xlink:href="#s"/><use transform="matrix(0.05,0,0,0.05,65.95,0)" xlink:href="#A"/><use transform="matrix(0.05,0,0,0.05,75.95,0)" xlink:href="#B"/><use transform="matrix(0.05,0,0,0.05,80.95,0)" xlink:href="#t"/><use transform="matrix(0.05,0,0,0.05,90.95,0)" xlink:href="#C"/><use transform="matrix(0.05,0,0,0.05,99.95,0)" xlink:href="#t"/><use transform="matrix(0.05,0,0,0.05,109.95,0)" xlink:href="#D"/><use transform="matrix(0.05,0,0,0.05,113.9,0)" xlink:href="#w"/><use transform="matrix(0.05,0,0,0.05,117.85000000000001,0)" xlink:href="#t"/><use transform="matrix(0.05,0,0,0.05,127.85000000000001,0)" xlink:href="#E"/><use transform="matrix(0.05,0,0,0.05,137.85000000000002,0)" xlink:href="#w"/><use transform="matrix(0.05,0,0,0.05,141.8,0)" xlink:href="#y"/><use transform="matrix(0.05,0,0,0.05,151.8,0)" xlink:href="#F"/><use transform="matrix(0.05,0,0,0.05,157.75,0)" xlink:href="#G"/></g><path fill="#fff" d="M55-144c13 50 104 24 104 88C159 21 15 23 1-39l26-10c6 40 102 42 102-4-13-50-104-23-104-87 0-71 143-71 148-8l-29 4c-5-35-85-37-89 0" id="H"/><path fill="#fff" d="M67-162c32-53 139-36 121 50C175-51 163 2 97 4 68 4 52-11 42-31 38 6 28 39 22 75H-9l50-265h29c-1 10 0 20-3 28zm89 36c0-26-10-43-35-43-54 0-67 50-69 103-1 29 14 45 42 46 53 0 62-58 62-106" id="I"/><g id="c"><use transform="matrix(0.05,0,0,0.05,0,0)" xlink:href="#H"/><use transform="matrix(0.05,0,0,0.05,9,0)" xlink:href="#y"/><use transform="matrix(0.05,0,0,0.05,19,0)" xlink:href="#s"/><use transform="matrix(0.05,0,0,0.05,24,0)" xlink:href="#x"/><use transform="matrix(0.05,0,0,0.05,34,0)" xlink:href="#I"/><use transform="matrix(0.05,0,0,0.05,44,0)" xlink:href="#F"/><use transform="matrix(0.05,0,0,0.05,49.95,0)" xlink:href="#G"/></g><path fill="#3a414a" d="M137-103V0h-34v-103L8-248h37l75 118 75-118h37" id="J"/><path fill="#3a414a" d="M100-194c63 0 86 42 84 106H49c0 40 14 67 53 68 26 1 43-12 49-29l28 8c-11 28-37 45-77 45C44 4 14-33 15-96c1-61 26-98 85-98zm52 81c6-60-76-77-97-28-3 7-6 17-6 28h103" id="K"/><path fill="#3a414a" d="M135-143c-3-34-86-38-87 0 15 53 115 12 119 90S17 21 10-45l28-5c4 36 97 45 98 0-10-56-113-15-118-90-4-57 82-63 122-42 12 7 21 19 24 35" id="L"/><g id="d"><use transform="matrix(0.05,0,0,0.05,0,0)" xlink:href="#J"/><use transform="matrix(0.05,0,0,0.05,10.35,0)" xlink:href="#K"/><use transform="matrix(0.05,0,0,0.05,20.35,0)" xlink:href="#L"/></g><path fill="#3a414a" d="M190 0L58-211 59 0H30v-248h39L202-35l-2-213h31V0h-41" id="M"/><path fill="#3a414a" d="M100-194c62-1 85 37 85 99 1 63-27 99-86 99S16-35 15-95c0-66 28-99 85-99zM99-20c44 1 53-31 53-75 0-43-8-75-51-75s-53 32-53 75 10 74 51 75" id="N"/><g id="e"><use transform="matrix(0.05,0,0,0.05,0,0)" xlink:href="#M"/><use transform="matrix(0.05,0,0,0.05,12.950000000000001,0)" xlink:href="#N"/></g><path fill="#3a414a" d="M109-170H84l-4-78h32zm-65 0H19l-4-78h33" id="O"/><g id="f"><use transform="matrix(0.05,0,0,0.05,0,0)" xlink:href="#O"/><use transform="matrix(0.05,0,0,0.05,6.3500000000000005,0)" xlink:href="#L"/><use transform="matrix(0.05,0,0,0.05,15.350000000000001,0)" xlink:href="#O"/></g><path fill="#3a414a" d="M96-169c-40 0-48 33-48 73s9 75 48 75c24 0 41-14 43-38l32 2c-6 37-31 61-74 61-59 0-76-41-82-99-10-93 101-131 147-64 4 7 5 14 7 22l-32 3c-4-21-16-35-41-35" id="P"/><g id="g"><use transform="matrix(0.05,0,0,0.05,0,0)" xlink:href="#O"/><use transform="matrix(0.05,0,0,0.05,6.3500000000000005,0)" xlink:href="#P"/><use transform="matrix(0.05,0,0,0.05,15.350000000000001,0)" xlink:href="#O"/></g><path fill="#fff" d="M133-28C103 26-5 8 13-77c13-62 24-115 90-117 29-1 46 15 56 35l19-102h32L160 0h-30zM45-64c-2 27 10 43 35 43 54-1 69-50 69-103 0-29-15-46-42-46-53-1-58 58-62 106" id="Q"/><path fill="#fff" d="M67-158c22-48 132-52 116 29L158 0h-32l25-140c3-38-53-32-70-12C52-117 51-52 38 0H6l36-190h30" id="R"/><path fill="#fff" d="M103-194c29 0 47 14 56 36 2-11 5-23 8-32h30L160-5C157 61 82 97 21 62 9 55 4 45 1 30l28-7c7 42 83 31 92-3 4-16 9-38 13-55-13 20-29 36-62 36-40 0-60-25-60-64 0-71 23-131 91-131zm4 24c-53 0-58 54-61 104-2 27 10 44 36 44 49 0 65-50 67-102 1-29-15-46-42-46" id="S"/><g id="h"><use transform="matrix(0.05,0,0,0.05,0,0)" xlink:href="#v"/><use transform="matrix(0.05,0,0,0.05,12,0)" xlink:href="#w"/><use transform="matrix(0.05,0,0,0.05,15.949999999999998,0)" xlink:href="#x"/><use transform="matrix(0.05,0,0,0.05,25.950000000000003,0)" xlink:href="#y"/><use transform="matrix(0.05,0,0,0.05,35.95,0)" xlink:href="#s"/><use transform="matrix(0.05,0,0,0.05,40.95,0)" xlink:href="#z"/><use transform="matrix(0.05,0,0,0.05,50.95,0)" xlink:href="#z"/><use transform="matrix(0.05,0,0,0.05,60.95,0)" xlink:href="#s"/><use transform="matrix(0.05,0,0,0.05,65.95,0)" xlink:href="#A"/><use transform="matrix(0.05,0,0,0.05,75.95,0)" xlink:href="#B"/><use transform="matrix(0.05,0,0,0.05,80.95,0)" xlink:href="#u"/><use transform="matrix(0.05,0,0,0.05,86.9,0)" xlink:href="#y"/><use transform="matrix(0.05,0,0,0.05,96.9,0)" xlink:href="#t"/><use transform="matrix(0.05,0,0,0.05,106.9,0)" xlink:href="#Q"/><use transform="matrix(0.05,0,0,0.05,116.9,0)" xlink:href="#r"/><use transform="matrix(0.05,0,0,0.05,128.9,0)" xlink:href="#s"/><use transform="matrix(0.05,0,0,0.05,133.9,0)" xlink:href="#u"/><use transform="matrix(0.05,0,0,0.05,139.85,0)" xlink:href="#D"/><use transform="matrix(0.05,0,0,0.05,143.79999999999998,0)" xlink:href="#R"/><use transform="matrix(0.05,0,0,0.05,153.79999999999998,0)" xlink:href="#S"/><use transform="matrix(0.05,0,0,0.05,163.79999999999998,0)" xlink:href="#F"/><use transform="matrix(0.05,0,0,0.05,169.74999999999997,0)" xlink:href="#G"/></g><path fill="#fff" d="M248-111c6-24 9-61-24-58-72 9-57 108-77 169h-31l26-142c3-37-50-30-64-10C52-115 50-51 37 0H6l36-190h30c-1 10-6 24-4 32 13-43 101-52 105 5 13-22 29-41 61-41 90 0 28 129 23 194h-31" id="T"/><g id="i"><use transform="matrix(0.05,0,0,0.05,0,0)" xlink:href="#T"/><use transform="matrix(0.05,0,0,0.05,14.950000000000001,0)" xlink:href="#z"/><use transform="matrix(0.05,0,0,0.05,24.950000000000003,0)" xlink:href="#C"/><use transform="matrix(0.05,0,0,0.05,33.95,0)" xlink:href="#y"/><use transform="matrix(0.05,0,0,0.05,43.95,0)" xlink:href="#r"/><use transform="matrix(0.05,0,0,0.05,55.95,0)" xlink:href="#y"/><use transform="matrix(0.05,0,0,0.05,65.95,0)" xlink:href="#u"/><use transform="matrix(0.05,0,0,0.05,71.9,0)" xlink:href="#C"/><use transform="matrix(0.05,0,0,0.05,80.9,0)" xlink:href="#z"/><use transform="matrix(0.05,0,0,0.05,90.9,0)" xlink:href="#F"/><use transform="matrix(0.05,0,0,0.05,96.85000000000001,0)" xlink:href="#G"/></g><path fill="#fff" d="M247 0h-39l-15-214-24 57L95 0H56L31-248h35L82-30l101-218h33l16 218 101-218h35" id="U"/><path fill="#fff" d="M44-68c0 29 11 47 38 47 30 0 42-19 51-41l28 9C148-21 126 4 82 4 31 4 10-29 12-85c3-77 74-140 146-93 12 8 15 23 18 40l-31 5c-1-22-13-36-36-36-52 0-65 49-65 101" id="V"/><g id="j"><use transform="matrix(0.05,0,0,0.05,0,0)" xlink:href="#U"/><use transform="matrix(0.05,0,0,0.05,16.95,0)" xlink:href="#A"/><use transform="matrix(0.05,0,0,0.05,26.950000000000003,0)" xlink:href="#D"/><use transform="matrix(0.05,0,0,0.05,30.899999999999995,0)" xlink:href="#V"/><use transform="matrix(0.05,0,0,0.05,39.9,0)" xlink:href="#A"/></g><path fill="#fff" d="M28-184c13-41 42-62 95-67 81-7 97 95 38 128-25 14-56 24-63 57H67c6-67 99-52 99-119 0-27-20-37-46-38-33 0-55 19-63 46zM53 0l6-35h35L87 0H53" id="W"/><g id="k"><use transform="matrix(0.05,0,0,0.05,0,0)" xlink:href="#V"/><use transform="matrix(0.05,0,0,0.05,9,0)" xlink:href="#z"/><use transform="matrix(0.05,0,0,0.05,19,0)" xlink:href="#T"/><use transform="matrix(0.05,0,0,0.05,33.95,0)" xlink:href="#T"/><use transform="matrix(0.05,0,0,0.05,48.900000000000006,0)" xlink:href="#t"/><use transform="matrix(0.05,0,0,0.05,58.900000000000006,0)" xlink:href="#R"/><use transform="matrix(0.05,0,0,0.05,68.9,0)" xlink:href="#Q"/><use transform="matrix(0.05,0,0,0.05,78.9,0)" xlink:href="#W"/></g><path fill="#fff" d="M249-183c0 48-29 72-75 77L221 0h-36l-43-103H65L45 0H11l48-248c83 2 190-17 190 65zm-34 3c0-55-74-39-127-41l-18 92c63-1 145 13 145-51" id="X"/><g id="l"><use transform="matrix(0.05,0,0,0.05,0,0)" xlink:href="#X"/><use transform="matrix(0.05,0,0,0.05,12.950000000000001,0)" xlink:href="#y"/><use transform="matrix(0.05,0,0,0.05,22.950000000000003,0)" xlink:href="#H"/><use transform="matrix(0.05,0,0,0.05,31.950000000000003,0)" xlink:href="#y"/><use transform="matrix(0.05,0,0,0.05,41.95,0)" xlink:href="#s"/></g><g id="m"><use transform="matrix(0.05,0,0,0.05,0,0)" xlink:href="#r"/><use transform="matrix(0.05,0,0,0.05,12,0)" xlink:href="#t"/><use transform="matrix(0.05,0,0,0.05,22,0)" xlink:href="#C"/><use transform="matrix(0.05,0,0,0.05,31,0)" xlink:href="#y"/></g><path fill="#fff" d="M238-179c0 84-86 86-175 82L45 0H11l48-248c82 0 179-12 179 69zm-34 1c0-53-64-42-116-43l-19 98c63 0 135 9 135-55" id="Y"/><path fill="#fff" d="M198-190L69 30C53 58 25 83-20 72c4-11-1-27 19-22 33-1 43-29 59-52L20-190h32L79-34l84-156h35" id="Z"/><g id="n"><use transform="matrix(0.05,0,0,0.05,0,0)" xlink:href="#Y"/><use transform="matrix(0.05,0,0,0.05,12,0)" xlink:href="#w"/><use transform="matrix(0.05,0,0,0.05,15.949999999999998,0)" xlink:href="#t"/><use transform="matrix(0.05,0,0,0.05,25.950000000000003,0)" xlink:href="#Z"/></g><path fill="#3a414a" d="M27 0v-27h64v-190l-56 39v-29l58-41h29v221h61V0H27" id="aa"/><use transform="matrix(0.05,0,0,0.05,0,0)" xlink:href="#aa" id="o"/><path fill="#3a414a" d="M155-56V0h-30v-56H8v-25l114-167h33v167h35v25h-35zm-30-156c-27 46-58 90-88 131h88v-131" id="ab"/><use transform="matrix(0.05,0,0,0.05,0,0)" xlink:href="#ab" id="p"/><path fill="#3a414a" d="M101-251c82-7 93 87 43 132L82-64C71-53 59-42 53-27h129V0H18c2-99 128-94 128-182 0-28-16-43-45-43s-46 15-49 41l-32-3c6-41 34-60 81-64" id="ac"/><use transform="matrix(0.05,0,0,0.05,0,0)" xlink:href="#ac" id="q"/></defs></g></svg>